<svg width="16" height="16" viewBox="0 0 16 16" fill="none" xmlns="http://www.w3.org/2000/svg">
<path d="M6.78123 4.05875C6.58591 3.86343 6.26935 3.86343 6.07404 4.05875L2.48779 7.645C2.4756 7.65718 2.46404 7.67 2.4531 7.68343C2.44966 7.6875 2.44685 7.69187 2.44341 7.69625C2.43685 7.705 2.43029 7.71343 2.42404 7.7225C2.41966 7.72906 2.41591 7.73593 2.41185 7.7425C2.40748 7.74968 2.4031 7.75687 2.39904 7.76437C2.39498 7.77187 2.39154 7.77937 2.3881 7.78718C2.38466 7.79437 2.38123 7.80125 2.3781 7.80843C2.37466 7.81656 2.37216 7.82468 2.36935 7.83281C2.36685 7.84 2.36404 7.84718 2.36185 7.85437C2.35904 7.86343 2.35716 7.8725 2.35498 7.88125C2.35341 7.88812 2.35154 7.89468 2.34998 7.90156C2.34748 7.91343 2.34591 7.92531 2.34466 7.93718C2.34404 7.94156 2.34341 7.94562 2.34279 7.95C2.33935 7.98343 2.33935 8.01718 2.34279 8.05062C2.3431 8.0525 2.34341 8.05437 2.34373 8.05625C2.34529 8.07062 2.34748 8.085 2.35029 8.09906C2.35123 8.10312 2.35248 8.10718 2.35341 8.11125C2.35623 8.12312 2.35904 8.135 2.36248 8.14656C2.36373 8.15062 2.36529 8.15468 2.36685 8.15906C2.3706 8.17031 2.37466 8.18187 2.37935 8.19312C2.38091 8.19656 2.38248 8.19968 2.38404 8.20312C2.38935 8.21468 2.39466 8.22625 2.4006 8.2375C2.40185 8.23968 2.40341 8.24187 2.40466 8.24406C2.41123 8.25593 2.41841 8.26781 2.42591 8.27937C2.42654 8.28031 2.42716 8.28125 2.42779 8.28218C2.44498 8.3075 2.46466 8.33156 2.48685 8.35375L6.07466 11.9416C6.17216 12.0391 6.30029 12.0881 6.4281 12.0881C6.55591 12.0881 6.68404 12.0394 6.78154 11.9416C6.97685 11.7462 6.97685 11.4297 6.78154 11.2344L4.04716 8.5H13.1603C13.4365 8.5 13.6603 8.27625 13.6603 8C13.6603 7.72375 13.4365 7.5 13.1603 7.5H4.04716L6.78123 4.76562C6.97654 4.57062 6.97654 4.25406 6.78123 4.05875Z" fill="black"/>
</svg>
