<svg width="16" height="16" viewBox="0 0 16 16" fill="none" xmlns="http://www.w3.org/2000/svg">
<g clip-path="url(#clip0_21_46)">
<path fill-rule="evenodd" clip-rule="evenodd" d="M7.96173 0.833332H8.03826C9.5772 0.833325 10.7832 0.833319 11.7242 0.959832C12.6873 1.08933 13.4474 1.35955 14.0439 1.95609C14.6405 2.55263 14.9107 3.31265 15.0402 4.27581C15.1667 5.21679 15.1667 6.42282 15.1667 7.96173V8.03826C15.1667 9.5772 15.1667 10.7832 15.0402 11.7242C14.9107 12.6873 14.6405 13.4474 14.0439 14.0439C13.4474 14.6405 12.6873 14.9107 11.7242 15.0402C10.7832 15.1667 9.5772 15.1667 8.03826 15.1667H7.96173C6.42282 15.1667 5.21679 15.1667 4.27581 15.0402C3.31265 14.9107 2.55263 14.6405 1.95609 14.0439C1.35955 13.4474 1.08933 12.6873 0.959832 11.7242C0.833319 10.7832 0.833325 9.5772 0.833332 8.03826V7.96173C0.833325 6.42282 0.833319 5.21679 0.959832 4.27581C1.08933 3.31265 1.35955 2.55263 1.95609 1.95609C2.55263 1.35955 3.31265 1.08933 4.27581 0.959832C5.21679 0.833319 6.42282 0.833325 7.96173 0.833332ZM4.40905 1.95091C3.55678 2.0655 3.04297 2.28343 2.6632 2.6632C2.28343 3.04297 2.0655 3.55678 1.95091 4.40905C1.83439 5.27571 1.83333 6.41451 1.83333 8C1.83333 9.58546 1.83439 10.7243 1.95091 11.5909C2.0655 12.4432 2.28343 12.957 2.6632 13.3368C3.04297 13.7166 3.55678 13.9345 4.40905 14.0491C5.27571 14.1656 6.41451 14.1667 8 14.1667C9.58546 14.1667 10.7243 14.1656 11.5909 14.0491C12.4432 13.9345 12.957 13.7166 13.3368 13.3368C13.7166 12.957 13.9345 12.4432 14.0491 11.5909C14.1656 10.7243 14.1667 9.58546 14.1667 8C14.1667 6.41451 14.1656 5.27571 14.0491 4.40905C13.9345 3.55678 13.7166 3.04297 13.3368 2.6632C12.957 2.28343 12.4432 2.0655 11.5909 1.95091C10.7243 1.83439 9.58546 1.83333 8 1.83333C6.41451 1.83333 5.27571 1.83439 4.40905 1.95091ZM8 4.83333C8.27613 4.83333 8.5 5.05719 8.5 5.33333V7.79286L10.0202 9.31313C10.2155 9.5084 10.2155 9.82493 10.0202 10.0202C9.82493 10.2155 9.5084 10.2155 9.31313 10.0202L7.89053 8.5976C7.69787 8.40493 7.60147 8.3086 7.55073 8.18607C7.5 8.0636 7.5 7.92733 7.5 7.6548V5.33333C7.5 5.05719 7.72387 4.83333 8 4.83333Z" fill="black"/>
</g>
<defs>
<clipPath id="clip0_21_46">
<rect width="16" height="16" fill="white"/>
</clipPath>
</defs>
</svg>
