<svg width="16" height="16" viewBox="0 0 16 16" fill="none" xmlns="http://www.w3.org/2000/svg">
<g clip-path="url(#clip0_23_67)">
<path d="M14.1866 4.2667L7.8266 10.6267C7.19327 11.26 5.31325 11.5533 4.89325 11.1333C4.47325 10.7133 4.75991 8.83333 5.39325 8.2L11.7599 1.83335C11.9169 1.66206 12.107 1.52436 12.3187 1.42856C12.5304 1.33276 12.7593 1.28083 12.9917 1.27594C13.2239 1.27105 13.4549 1.31328 13.6704 1.40008C13.8859 1.48689 14.0817 1.61649 14.2457 1.78102C14.4098 1.94556 14.5389 2.14162 14.6251 2.3574C14.7113 2.57318 14.7529 2.80417 14.7474 3.03647C14.7419 3.26877 14.6893 3.49757 14.5929 3.709C14.4965 3.92043 14.3583 4.11016 14.1866 4.2667Z" stroke="black" stroke-width="1.23" stroke-linecap="round" stroke-linejoin="round"/>
<path d="M7.33334 2.66667H4C3.29276 2.66667 2.61452 2.94761 2.11442 3.44771C1.61433 3.94781 1.33334 4.62609 1.33334 5.33333V12C1.33334 12.7073 1.61433 13.3855 2.11442 13.8856C2.61452 14.3857 3.29276 14.6667 4 14.6667H11.3333C12.8067 14.6667 13.3333 13.4667 13.3333 12V8.66667" stroke="black" stroke-width="1.23" stroke-linecap="round" stroke-linejoin="round"/>
</g>
<defs>
<clipPath id="clip0_23_67">
<rect width="16" height="16" fill="white"/>
</clipPath>
</defs>
</svg>
