<svg width="16" height="16" viewBox="0 0 16 16" fill="none" xmlns="http://www.w3.org/2000/svg">
<g clip-path="url(#clip0_21_42)">
<path fill-rule="evenodd" clip-rule="evenodd" d="M15.012 0V16H1.82525V12.3399H1.3543C1.09433 12.3399 0.883339 12.129 0.883339 11.8693C0.883339 11.6095 1.09433 11.3987 1.3543 11.3987H1.82525V8.57517H1.3543C1.09433 8.57517 0.883339 8.36433 0.883339 8.10458C0.883339 7.84481 1.09433 7.63399 1.3543 7.63399H1.82525V4.81045H1.3543C1.09433 4.81045 0.883339 4.59963 0.883339 4.33987C0.883339 4.0801 1.09433 3.86928 1.3543 3.86928H1.82525V0H15.012ZM14.0701 0.941175H2.76716V3.86928H3.23812C3.49809 3.86928 3.70907 4.08011 3.70907 4.33987C3.70907 4.59963 3.49809 4.81045 3.23812 4.81045H2.76716V7.63398H3.23812C3.49809 7.63398 3.70907 7.84482 3.70907 8.10458C3.70907 8.36434 3.49809 8.57516 3.23812 8.57516H2.76716V11.3987H3.23812C3.49809 11.3987 3.70907 11.6095 3.70907 11.8693C3.70907 12.129 3.49809 12.3399 3.23812 12.3399H2.76716V15.0588H14.0701V0.941167L14.0701 0.941175ZM5.33574 3.54334H11.5742V4.48451H5.33573L5.33574 3.54334ZM5.33574 5.33359H10.6644V6.27476H5.33573L5.33574 5.33359ZM5.33574 9.79063H11.5742V10.7318H5.33573L5.33574 9.79063ZM5.33574 11.5809H10.6644V12.5221H5.33573L5.33574 11.5809Z" fill="black"/>
</g>
<defs>
<clipPath id="clip0_21_42">
<rect width="16" height="16" fill="white"/>
</clipPath>
</defs>
</svg>
