<svg width="16" height="16" viewBox="0 0 16 16" fill="none" xmlns="http://www.w3.org/2000/svg">
<path d="M8 6.93333V13.3333M8 6.93333C8 5.43986 8 4.69313 7.70933 4.12269C7.45367 3.62093 7.04573 3.21298 6.54397 2.95731C5.97354 2.66667 5.22681 2.66667 3.73333 2.66667H3.06667C2.6933 2.66667 2.50661 2.66667 2.36401 2.73933C2.23857 2.80325 2.13658 2.90523 2.07266 3.03067C2 3.17328 2 3.35997 2 3.73333V10.9333C2 11.3067 2 11.4934 2.07266 11.636C2.13658 11.7615 2.23857 11.8634 2.36401 11.9273C2.50661 12 2.6933 12 3.06667 12H5.03112C5.39125 12 5.57131 12 5.74543 12.0311C5.89997 12.0586 6.05073 12.1042 6.19461 12.1671C6.35669 12.2378 6.50651 12.3377 6.80613 12.5375L8 13.3333M8 6.93333C8 5.43986 8 4.69313 8.29067 4.12269C8.54633 3.62093 8.95427 3.21298 9.456 2.95731C10.0265 2.66667 10.7732 2.66667 12.2667 2.66667H12.9333C13.3067 2.66667 13.4934 2.66667 13.636 2.73933C13.7615 2.80325 13.8634 2.90523 13.9273 3.03067C14 3.17328 14 3.35997 14 3.73333V10.9333C14 11.3067 14 11.4934 13.9273 11.636C13.8634 11.7615 13.7615 11.8634 13.636 11.9273C13.4934 12 13.3067 12 12.9333 12H10.9689C10.6087 12 10.4287 12 10.2546 12.0311C10.1 12.0586 9.94927 12.1042 9.8054 12.1671C9.64333 12.2378 9.49347 12.3377 9.19387 12.5375L8 13.3333" stroke="black" stroke-linecap="round" stroke-linejoin="round"/>
</svg>
