<svg width="16" height="16" viewBox="0 0 16 16" fill="none" xmlns="http://www.w3.org/2000/svg">
<path fill-rule="evenodd" clip-rule="evenodd" d="M8 5.5C6.61929 5.5 5.5 6.61929 5.5 8C5.5 9.38073 6.61929 10.5 8 10.5C9.38073 10.5 10.5 9.38073 10.5 8C10.5 6.61929 9.38073 5.5 8 5.5ZM6.5 8C6.5 7.1716 7.1716 6.5 8 6.5C8.8284 6.5 9.5 7.1716 9.5 8C9.5 8.8284 8.8284 9.5 8 9.5C7.1716 9.5 6.5 8.8284 6.5 8Z" fill="black"/>
<path fill-rule="evenodd" clip-rule="evenodd" d="M8 2.16667C4.99058 2.16667 2.96353 3.96947 1.78705 5.49791L1.76583 5.52547C1.49976 5.87102 1.25471 6.18928 1.08846 6.5656C0.910425 6.9686 0.833332 7.4078 0.833332 8C0.833332 8.5922 0.910425 9.0314 1.08846 9.4344C1.25471 9.81073 1.49976 10.129 1.76583 10.4745L1.78705 10.5021C2.96353 12.0305 4.99058 13.8333 8 13.8333C11.0094 13.8333 13.0365 12.0305 14.2129 10.5021L14.2341 10.4745C14.5003 10.129 14.7453 9.81073 14.9115 9.4344C15.0896 9.0314 15.1667 8.5922 15.1667 8C15.1667 7.4078 15.0896 6.9686 14.9115 6.5656C14.7453 6.18927 14.5003 5.87101 14.2341 5.52545L14.2129 5.49791C13.0365 3.96947 11.0094 2.16667 8 2.16667ZM2.57948 6.10787C3.66576 4.69661 5.43357 3.16667 8 3.16667C10.5664 3.16667 12.3343 4.69661 13.4205 6.10787C13.7129 6.48773 13.8842 6.71473 13.9968 6.96967C14.1021 7.208 14.1667 7.49927 14.1667 8C14.1667 8.50073 14.1021 8.792 13.9968 9.03033C13.8842 9.28527 13.7129 9.51227 13.4205 9.89213C12.3343 11.3034 10.5664 12.8333 8 12.8333C5.43357 12.8333 3.66576 11.3034 2.57948 9.89213C2.28709 9.51227 2.11583 9.28527 2.00317 9.03033C1.89789 8.792 1.83333 8.50073 1.83333 8C1.83333 7.49927 1.89789 7.208 2.00317 6.96967C2.11583 6.71473 2.28709 6.48773 2.57948 6.10787Z" fill="black"/>
</svg>
