<svg width="16" height="16" viewBox="0 0 16 16" fill="none" xmlns="http://www.w3.org/2000/svg">
<path d="M7.04 9.56077H8.96C9.1392 9.56077 9.28 9.70157 9.28 9.88077V13.0808C9.28 13.26 9.1392 13.4008 8.96 13.4008H7.04C6.8608 13.4008 6.72 13.26 6.72 13.0808V9.88077C6.72 9.70157 6.8608 9.56077 7.04 9.56077Z" stroke="black" stroke-width="1.2" stroke-miterlimit="10" stroke-linecap="round" stroke-linejoin="round"/>
<path d="M5.44 13.4008H4.16C3.9808 13.4008 3.84 13.26 3.84 13.0808V7.00077H1.92L7.808 2.6616C7.9232 2.5784 8.0768 2.5784 8.1856 2.6616L14.08 7.00077H12.16V13.0808C12.16 13.26 12.0128 13.4008 11.84 13.4008H10.56" stroke="black" stroke-width="1.2" stroke-miterlimit="10" stroke-linecap="round" stroke-linejoin="round"/>
</svg>
