<svg width="16" height="16" viewBox="0 0 16 16" fill="none" xmlns="http://www.w3.org/2000/svg">
<g clip-path="url(#clip0_21_44)">
<path d="M5.238 6.66667H1.428C0.641333 6.66667 0 6.02667 0 5.238V1.42867C0 0.64 0.64 0 1.428 0H5.238C6.02667 0 6.66667 0.64 6.66667 1.42867V5.238C6.66667 6.02667 6.02667 6.66667 5.238 6.66667ZM1.428 1.33333C1.37733 1.33333 1.33333 1.378 1.33333 1.42867V5.238C1.33333 5.28867 1.37733 5.33333 1.428 5.33333H5.238C5.28867 5.33333 5.33333 5.28867 5.33333 5.238V1.42867C5.33333 1.378 5.28867 1.33333 5.238 1.33333H1.428ZM5.238 16H1.428C0.641333 16 0 15.36 0 14.5713V10.7613C0 9.97467 0.64 9.33333 1.428 9.33333H5.238C6.02667 9.33333 6.66667 9.97333 6.66667 10.762V14.572C6.66667 15.3587 6.02667 16 5.238 16ZM1.428 10.6667C1.37733 10.6667 1.33333 10.7107 1.33333 10.762V14.572C1.33333 14.6227 1.37733 14.6667 1.428 14.6667H5.238C5.28867 14.6667 5.33333 14.6227 5.33333 14.5713V10.7613C5.33333 10.7107 5.28867 10.6667 5.238 10.6667H1.428ZM14.5713 16H10.7613C9.97333 16 9.33333 15.36 9.33333 14.5713V10.7613C9.33333 9.97333 9.97333 9.33333 10.7613 9.33333H14.5713C15.36 9.33333 16 9.97333 16 10.76V14.57C16 15.36 15.3587 16 14.5713 16ZM10.7613 10.6667C10.7107 10.6667 10.666 10.7107 10.666 10.762V14.572C10.666 14.6227 10.7093 14.6673 10.7607 14.6673H14.5707C14.6213 14.6673 14.666 14.624 14.666 14.5727V10.7627C14.666 10.712 14.622 10.6673 14.5707 10.6673L10.7613 10.6667ZM11.8787 8.24267C11.512 8.24267 11.1467 8.104 10.868 7.82533L8.17467 5.132C7.61667 4.57467 7.61667 3.668 8.17467 3.112L10.8667 0.416667C11.4053 -0.122 12.35 -0.121333 12.8867 0.416667L15.58 3.11C16.138 3.66667 16.138 4.57333 15.58 5.13L12.8867 7.82333C12.608 8.10333 12.242 8.242 11.8773 8.242L11.8787 8.24267ZM11.8787 1.33333C11.86 1.33333 11.834 1.338 11.8107 1.36L9.11733 4.05333C9.08067 4.09 9.08067 4.15333 9.11733 4.18867L11.8107 6.882C11.8473 6.91867 11.9087 6.91933 11.9453 6.882L14.6387 4.18867C14.6753 4.15267 14.6753 4.09 14.6387 4.054L11.9453 1.36067C11.9227 1.33867 11.8967 1.33333 11.8787 1.33333Z" fill="black"/>
</g>
<defs>
<clipPath id="clip0_21_44">
<rect width="16" height="16" fill="white"/>
</clipPath>
</defs>
</svg>
