<svg width="16" height="16" viewBox="0 0 16 16" fill="none" xmlns="http://www.w3.org/2000/svg">
<path fill-rule="evenodd" clip-rule="evenodd" d="M6.87293 1.50001H9.12719C9.27146 1.49992 9.39713 1.49984 9.51579 1.51879C9.98466 1.59366 10.3904 1.8861 10.6097 2.30723C10.6652 2.41382 10.7049 2.53307 10.7504 2.66996L10.8249 2.89323C10.8375 2.93102 10.8411 2.94172 10.8441 2.95015C10.9609 3.27289 11.2635 3.49106 11.6066 3.49976C11.6157 3.49999 11.6267 3.50003 11.6667 3.50003H13.6667C13.9429 3.50003 14.1667 3.72388 14.1667 4.00003C14.1667 4.27617 13.9429 4.50003 13.6667 4.50003H2.33333C2.05719 4.50003 1.83333 4.27617 1.83333 4.00003C1.83333 3.72388 2.05719 3.50003 2.33333 3.50003H4.33338C4.37341 3.50003 4.38446 3.49999 4.39348 3.49976C4.73658 3.49106 5.03927 3.27291 5.15601 2.95016C5.15908 2.94167 5.16261 2.93121 5.17527 2.89323L5.24967 2.66997C5.2952 2.53309 5.33488 2.41382 5.39039 2.30723C5.60968 1.8861 6.01541 1.59366 6.48428 1.51879C6.60296 1.49984 6.72866 1.49992 6.87293 1.50001ZM6.00543 3.50003C6.03977 3.43268 6.0702 3.36269 6.09638 3.29032C6.10433 3.26834 6.11213 3.24495 6.12214 3.21489L6.18867 3.01528C6.24945 2.83294 6.26345 2.79575 6.27733 2.76909C6.35043 2.62871 6.48568 2.53124 6.64197 2.50628C6.67166 2.50154 6.71133 2.50003 6.90353 2.50003H9.09653C9.28873 2.50003 9.32846 2.50154 9.35813 2.50628C9.51439 2.53124 9.64966 2.62871 9.72279 2.76909C9.73666 2.79575 9.75066 2.83293 9.81139 3.01528L9.87793 3.21477L9.90373 3.29033C9.92993 3.3627 9.96033 3.43268 9.99466 3.50003H6.00543Z" fill="black"/>
<path d="M3.94339 5.63343C3.92502 5.3579 3.68677 5.14943 3.41123 5.1678C3.13571 5.18616 2.92723 5.42442 2.9456 5.69995L3.25457 10.3345C3.31157 11.1896 3.35761 11.8803 3.46559 12.4224C3.57785 12.9859 3.7688 13.4567 4.16319 13.8257C4.55759 14.1946 5.03996 14.3539 5.60973 14.4283C6.15774 14.5001 6.84999 14.5001 7.70706 14.5H8.29299C9.15006 14.5001 9.84233 14.5001 10.3904 14.4283C10.9601 14.3539 11.4425 14.1946 11.8369 13.8257C12.2313 13.4567 12.4223 12.9859 12.5345 12.4224C12.6425 11.8804 12.6885 11.1896 12.7455 10.3345L13.0545 5.69995C13.0729 5.42442 12.8644 5.18616 12.5889 5.1678C12.3133 5.14943 12.0751 5.3579 12.0567 5.63343L11.7501 10.2329C11.6902 11.1314 11.6475 11.7566 11.5538 12.2271C11.4629 12.6833 11.336 12.9249 11.1537 13.0954C10.9715 13.2659 10.722 13.3765 10.2607 13.4368C9.78506 13.499 9.15839 13.5 8.25786 13.5H7.74226C6.84173 13.5 6.21503 13.499 5.73943 13.4368C5.27809 13.3765 5.02865 13.2659 4.84638 13.0954C4.66411 12.9249 4.53721 12.6833 4.44631 12.2271C4.35261 11.7566 4.30992 11.1314 4.25001 10.2329L3.94339 5.63343Z" fill="black"/>
<path d="M6.28364 6.83587C6.55842 6.80833 6.80347 7.00887 6.83094 7.2836L7.16427 10.6169C7.19174 10.8917 6.99127 11.1367 6.71647 11.1642C6.44171 11.1917 6.19669 10.9912 6.16921 10.7165L5.83588 7.38313C5.8084 7.10833 6.00888 6.86333 6.28364 6.83587Z" fill="black"/>
<path d="M9.71646 6.83587C9.99126 6.86333 10.1917 7.10833 10.1643 7.38313L9.83093 10.7165C9.80346 10.9912 9.55839 11.1917 9.28366 11.1642C9.00886 11.1367 8.80839 10.8917 8.83586 10.6169L9.16919 7.2836C9.19666 7.00887 9.44173 6.80833 9.71646 6.83587Z" fill="black"/>
</svg>
