<svg width="16" height="16" viewBox="0 0 16 16" fill="none" xmlns="http://www.w3.org/2000/svg">
<path d="M8 0C3.944 0 0.59525 3.01925 0.073 6.93225C0.0725 6.93625 0.072 6.94 0.0715 6.944C0.0575 7.04925 0.045 7.15475 0.035 7.26125C0.03025 7.3105 0.02775 7.36025 0.02375 7.40975C0.0185 7.47975 0.01275 7.54975 0.00925 7.62025C0.0035 7.74575 0 7.8725 0 8C0 12.4183 3.58175 16 8 16C12.4183 16 16 12.4183 16 8C16 3.58175 12.4183 0 8 0ZM8.3405 14.6255C8.1605 14.8222 7.86525 14.979 7.67175 14.793C7.5085 14.632 7.647 14.433 7.67175 14.2048C7.703 13.9385 7.58125 13.6185 7.83825 13.5358C8.0475 13.471 8.20525 13.6162 8.3405 13.7887C8.54675 14.0437 8.55975 14.3815 8.3405 14.6255ZM10.8615 12.4675C10.5665 12.6195 10.36 12.591 10.0308 12.6357C9.41725 12.713 8.93225 13.0157 8.4475 12.6357C8.23075 12.462 8.203 12.273 8.035 12.0505C7.764 11.7095 7.69625 11.0808 7.2825 11.22C7.018 11.309 7.026 11.5738 6.869 11.8038C6.6665 12.0928 6.71725 12.502 6.36775 12.552C6.12425 12.5865 5.993 12.4375 5.7875 12.302C5.557 12.1485 5.5115 11.965 5.287 11.8038C5.0535 11.6315 4.8645 11.6305 4.6235 11.4703C4.45 11.3545 4.413 11.1443 4.20525 11.1368C4.0175 11.1313 3.883 11.2232 3.78925 11.3857C3.614 11.6892 3.55375 12.584 3.04225 12.552C2.66325 12.5263 1.85275 11.6748 1.54375 11.4703C1.4425 11.402 1.34875 11.3325 1.25425 11.2795C0.797 10.3405 0.5315 9.2915 0.505 8.18325C0.6585 8.0545 0.81475 7.991 0.95975 7.81C1.1915 7.5275 1.08 7.18325 1.378 6.97625C1.5995 6.82525 1.7785 6.8495 2.04525 6.81175C2.4275 6.75625 2.668 6.70625 3.04225 6.81175C3.407 6.914 3.54625 7.12325 3.87375 7.30975C4.2275 7.51225 4.38675 7.75125 4.78875 7.81C5.08025 7.85125 5.28025 7.58475 5.53575 7.72575C5.74175 7.84025 5.88725 7.99225 5.871 8.226C5.846 8.5305 5.2405 8.337 5.20625 8.6415C5.1605 9.031 5.83425 8.593 6.20425 8.724C6.44775 8.81275 6.7645 8.7975 6.7855 9.0575C6.80575 9.3465 6.3835 9.26675 6.12125 9.39125C5.83075 9.5265 5.6785 9.64025 5.37025 9.7235C5.089 9.798 4.79225 9.5665 4.6235 9.80575C4.491 9.99125 4.53775 10.178 4.6235 10.3895C4.82025 10.8722 5.46075 10.7275 5.954 10.5538C6.29975 10.4318 6.36425 10.1223 6.70325 9.9715C7.06275 9.81125 7.34175 9.63775 7.6985 9.80575C7.993 9.94475 7.91075 10.3183 8.2 10.4715C8.51325 10.6385 8.808 10.2893 9.11575 10.4715C9.355 10.6138 9.3375 10.8518 9.5295 11.0533C9.753 11.2888 9.882 11.4788 10.1965 11.5533C10.518 11.628 10.7145 11.2855 11.0282 11.3855C11.2695 11.4642 11.467 11.5555 11.525 11.8035C11.6162 12.1585 11.186 12.2995 10.8615 12.4675ZM11.4598 8.46025C11.1713 8.75025 10.9208 8.845 10.517 8.9335C10.1588 9.01225 9.65625 9.293 9.574 8.9335C9.51125 8.6465 9.83125 8.544 10.0472 8.34375C10.287 8.12 10.5107 8.098 10.7537 7.87075C10.9712 7.67025 10.9428 7.363 11.227 7.281C11.5043 7.201 11.7725 7.27625 11.9333 7.51775C12.163 7.8595 11.7515 8.17025 11.4598 8.46025ZM14.9972 7.32975C14.8742 7.45675 14.8817 7.59075 14.756 7.71525C14.6167 7.85 14.4232 7.792 14.3215 7.95725C14.232 8.1015 14.289 8.2215 14.273 8.391C14.2627 8.48775 13.792 8.705 13.6947 8.48725C13.6412 8.367 13.765 8.2605 13.6947 8.149C13.629 8.04875 13.556 8.10025 13.47 8.19425C13.3803 8.29125 13.277 8.43375 13.1648 8.48725C13.0175 8.5555 13.1157 7.92475 13.066 7.71525C13.0295 7.5495 13.0685 7.44525 13.1155 7.28125C13.178 7.05375 13.35 6.97975 13.4043 6.75C13.4528 6.5485 13.4125 6.42625 13.4043 6.21925C13.3945 5.99275 13.4005 5.8625 13.3573 5.64075C13.3093 5.4065 13.2943 5.2595 13.1645 5.06175C13.06 4.90575 12.991 4.8115 12.826 4.72375C12.786 4.70175 12.7485 4.68725 12.713 4.676C12.628 4.64775 12.5483 4.644 12.4385 4.62775C12.2165 4.59475 12.058 4.73575 11.86 4.62775C11.7445 4.564 11.7085 4.484 11.62 4.386C11.519 4.2775 11.4923 4.18875 11.3783 4.0965C11.293 4.0275 11.2403 3.98725 11.137 3.95125C10.9395 3.8855 10.8015 3.93075 10.6055 4.00025C10.413 4.06725 10.341 4.177 10.1707 4.289C10.0402 4.36475 9.9475 4.38175 9.83375 4.4825C9.76475 4.543 9.43625 4.77675 9.302 4.77125C9.166 4.766 9.08925 4.6855 8.9675 4.67575C8.95125 4.67375 8.935 4.67375 8.9165 4.67575C8.9165 4.67575 8.9165 4.67575 8.91525 4.67575C8.797 4.68475 8.74125 4.743 8.62875 4.77125C8.352 4.84025 8.17575 4.7425 7.9025 4.8205C7.7245 4.8705 7.65425 5.012 7.47 5.01325C7.25975 5.0145 7.18875 4.8275 6.987 4.77125C6.8765 4.74175 6.8115 4.739 6.69775 4.72375C6.5105 4.69675 6.40325 4.694 6.21625 4.676H6.215C6.211 4.6775 6.06725 4.6905 6.043 4.676C5.9375 4.6045 5.8625 4.54575 5.732 4.48275C5.58825 4.412 5.50225 4.37575 5.34525 4.33675L5.35175 4.2415C5.35175 4.2415 5.35175 4.02975 5.3215 3.93975C5.29275 3.8495 5.2615 3.8495 5.3215 3.66825C5.3835 3.48775 5.49125 3.37275 5.49125 3.37275C5.5655 3.31575 5.62025 3.2965 5.6835 3.22775C5.811 3.093 5.86275 2.97825 5.877 2.793C5.89375 2.55 5.57575 2.45125 5.6345 2.214C5.68675 2.0075 5.8605 1.969 6.02125 1.82825C6.216 1.66075 6.38825 1.63875 6.55125 1.44275C6.6765 1.2945 6.779 1.2015 6.79375 1.00825C6.807 0.844 6.73625 0.74125 6.65125 0.62375C7.089 0.54375 7.53925 0.5 8 0.5C11.7297 0.5 14.8225 3.22325 15.4012 6.7895C15.3505 6.8775 15.401 6.9885 15.3337 7.08775C15.2447 7.2235 15.109 7.2125 14.9972 7.32975Z" fill="url(#paint0_linear_72_5)"/>
<defs>
<linearGradient id="paint0_linear_72_5" x1="8" y1="0" x2="8" y2="16" gradientUnits="userSpaceOnUse">
<stop stop-color="#16A8FC"/>
<stop offset="1" stop-color="#0168E2"/>
</linearGradient>
</defs>
</svg>
