<svg width="16" height="16" viewBox="0 0 16 16" fill="none" xmlns="http://www.w3.org/2000/svg">
<g clip-path="url(#clip0_7_20)">
<path d="M8 0C3.58175 0 0 3.58175 0 8C0 12.4183 3.58175 16 8 16C12.4183 16 16 12.4183 16 8C16 3.58175 12.4183 0 8 0ZM6.95475 1.60375L6.99875 1.5525C7.11025 1.42375 7.2365 1.278 7.2555 1.0275C7.272 0.81925 7.1985 0.67225 7.119 0.55325C7.40825 0.51925 7.70175 0.5 8 0.5C8.36625 0.5 8.72575 0.5275 9.078 0.57825C9.1435 0.66 9.2295 0.74525 9.369 0.8025C9.517 0.86625 9.69175 0.91675 9.91175 0.86475C9.97675 0.84925 10.0273 0.82175 10.0708 0.79175C10.2253 0.836 10.378 0.884 10.5285 0.93775C10.5812 1.09 10.6825 1.2715 10.9295 1.30275C11.0685 1.3225 11.1847 1.30075 11.2865 1.257C13.4053 2.29175 14.962 4.29525 15.384 6.6905C15.343 6.777 15.337 6.862 15.3357 6.91575C15.3352 6.93075 15.3365 6.946 15.3378 6.95C15.3288 6.964 15.3173 6.97125 15.2615 6.998C15.1978 7.02875 15.1108 7.07075 15.0305 7.15525C14.9393 7.2495 14.8972 7.34275 14.8635 7.41775C14.8372 7.47625 14.8223 7.508 14.795 7.53525C14.7775 7.55225 14.7435 7.5625 14.69 7.578C14.5855 7.608 14.4277 7.65325 14.3217 7.825C14.221 7.98725 14.2295 8.13725 14.2355 8.24675C14.2363 8.25925 14.2373 8.272 14.2378 8.285C14.2185 8.2945 14.195 8.30425 14.1705 8.31225C14.185 8.23325 14.187 8.124 14.1163 8.01175C14.0208 7.866 13.8945 7.844 13.828 7.844C13.701 7.844 13.6052 7.917 13.5437 7.97675C13.545 7.85575 13.5423 7.74425 13.5225 7.66075C13.504 7.57675 13.5158 7.53 13.5553 7.3945L13.569 7.347C13.5868 7.2825 13.622 7.2365 13.6705 7.1725C13.7372 7.085 13.8202 6.97625 13.8597 6.80825C13.904 6.62525 13.891 6.49025 13.8783 6.3595C13.8735 6.31325 13.8687 6.2645 13.8665 6.20825L13.8617 6.076C13.8567 5.9205 13.8527 5.78625 13.8145 5.59025L13.7972 5.503C13.7587 5.30625 13.7253 5.1365 13.5848 4.92225C13.4645 4.7425 13.3695 4.61625 13.1587 4.50425C13.109 4.477 13.0573 4.455 13.0045 4.4385C12.9193 4.41 12.8412 4.40025 12.7657 4.3905L12.6877 4.38C12.5545 4.3605 12.4345 4.38375 12.3462 4.40175C12.2747 4.41625 12.2292 4.428 12.1935 4.40825C12.1577 4.38875 12.1408 4.36825 12.0965 4.31225C12.073 4.2825 12.0483 4.25125 12.0155 4.215C11.9825 4.1795 11.96 4.1465 11.9382 4.11525C11.8952 4.054 11.842 3.9775 11.7483 3.90175C11.6483 3.8205 11.572 3.7635 11.4285 3.71325C11.1733 3.62875 10.9385 3.69175 10.736 3.7635C10.57 3.821 10.4687 3.9045 10.379 3.978C10.3397 4.0105 10.2983 4.045 10.258 4.072C10.2185 4.095 10.183 4.111 10.1495 4.127C10.0705 4.16375 9.98075 4.20575 9.8815 4.294C9.8125 4.3545 9.57825 4.50725 9.524 4.521C9.49975 4.52 9.47575 4.51025 9.432 4.4915C9.3755 4.467 9.2985 4.43425 9.2095 4.427L9.15525 4.42375C9.1385 4.42375 9.12125 4.42475 9.1085 4.426C8.995 4.4345 8.91525 4.4715 8.8565 4.49825C8.8335 4.50875 8.81 4.52075 8.7805 4.528C8.694 4.5495 8.5965 4.548 8.4985 4.54275C8.34175 4.53475 8.188 4.53925 8.047 4.57925C7.93125 4.612 7.8475 4.6685 7.7865 4.71C7.72075 4.7545 7.705 4.76225 7.68 4.7625C7.65475 4.7625 7.63675 4.752 7.567 4.697C7.498 4.6425 7.40325 4.56775 7.2635 4.529C7.16275 4.502 7.091 4.49325 7.015 4.484L6.94575 4.4755C6.8145 4.4565 6.72075 4.44875 6.6145 4.44C6.56525 4.436 6.51325 4.432 6.4525 4.426L6.382 4.42475L6.3705 4.42925C6.36225 4.42975 6.3525 4.43025 6.34175 4.43075L6.339 4.429C6.259 4.37325 6.17625 4.316 6.05475 4.257C5.96525 4.213 5.8925 4.1795 5.8125 4.15075C5.809 4.0615 5.799 3.9425 5.77225 3.8625C5.7665 3.84425 5.7605 3.82825 5.75275 3.80825C5.7555 3.79675 5.7605 3.7775 5.77025 3.74825C5.80275 3.65425 5.85325 3.58375 5.87525 3.5555C5.88875 3.54625 5.90125 3.53825 5.91325 3.53025C5.96 3.50025 6.01775 3.46275 6.07725 3.39825C6.244 3.22175 6.31975 3.0515 6.33875 2.809C6.35375 2.5925 6.233 2.447 6.153 2.3505C6.13 2.32325 6.0945 2.2805 6.0895 2.275C6.10025 2.23275 6.119 2.2145 6.2235 2.14525C6.2805 2.1075 6.34 2.06725 6.39675 2.0175C6.46125 1.96175 6.52325 1.9265 6.59475 1.88575C6.70675 1.822 6.8335 1.74975 6.95475 1.60375ZM1.1015 10.9462C0.817 10.281 0.6265 9.566 0.54525 8.8185C0.6065 8.7035 0.68075 8.592 0.78175 8.469C0.854 8.38275 0.93075 8.3305 1.01925 8.27025C1.127 8.19675 1.24925 8.11325 1.365 7.9685C1.504 7.79925 1.5495 7.61875 1.58625 7.4735C1.62575 7.31775 1.64825 7.24025 1.73075 7.183C1.84575 7.1045 1.93675 7.096 2.10175 7.0805C2.161 7.07525 2.22375 7.069 2.293 7.05925L2.385 7.04575C2.7095 6.998 2.91675 6.9765 3.1865 7.0525C3.3695 7.10375 3.48225 7.18925 3.625 7.29725C3.719 7.3685 3.8255 7.449 3.9615 7.52675C4.067 7.587 4.15625 7.6535 4.2425 7.71775C4.43525 7.861 4.6345 8.009 4.96575 8.0575C5.15575 8.08375 5.31575 8.025 5.437 7.97925C5.49775 7.956 5.55525 7.93425 5.591 7.93425C5.59925 7.93425 5.60975 7.935 5.62675 7.94425C5.7905 8.03525 5.827 8.11075 5.83375 8.1625C5.79875 8.17225 5.748 8.181 5.71075 8.18775C5.535 8.2185 5.208 8.27575 5.17025 8.6125C5.15125 8.775 5.207 8.87675 5.25775 8.93325C5.38875 9.081 5.633 9.06525 5.90825 9.00325C6.02675 8.9765 6.1495 8.9485 6.24775 8.9485C6.2925 8.9485 6.319 8.9545 6.331 8.95875C6.4035 8.985 6.48175 9.00425 6.558 9.02225C6.5915 9.03 6.63625 9.0405 6.67475 9.051C6.6465 9.05625 6.6175 9.0615 6.593 9.06575C6.47775 9.0855 6.3475 9.108 6.22825 9.16475C6.13425 9.2085 6.054 9.25 5.97875 9.28925C5.82525 9.36875 5.70375 9.43175 5.51875 9.482C5.46225 9.497 5.3765 9.48425 5.28625 9.469C5.21475 9.45675 5.141 9.44425 5.063 9.44425C4.8785 9.44425 4.73325 9.5175 4.63225 9.6605C4.40125 9.9835 4.53825 10.3213 4.60425 10.484C4.694 10.7048 4.9055 10.968 5.401 10.968C5.63425 10.968 5.904 10.9113 6.24975 10.7898C6.48825 10.7053 6.628 10.5525 6.74 10.4295C6.8305 10.33 6.902 10.2515 7.0175 10.2L7.14475 10.142C7.40675 10.0213 7.5985 9.93525 7.8045 10.0323C7.85975 10.0583 7.88375 10.1077 7.934 10.2317C7.99225 10.3762 8.07225 10.5742 8.295 10.6927C8.49775 10.8002 8.751 10.7613 8.936 10.7083C9.047 10.6765 9.136 10.6493 9.2005 10.687C9.26825 10.7273 9.29625 10.7817 9.34775 10.8912C9.39375 10.989 9.45075 11.1105 9.561 11.226C9.594 11.2607 9.625 11.2945 9.65475 11.327C9.8375 11.5272 10.0105 11.7162 10.3527 11.7972C10.402 11.8087 10.4522 11.8145 10.5022 11.8145C10.6772 11.8145 10.818 11.7448 10.931 11.6885C11.028 11.6405 11.1027 11.6045 11.1637 11.6235C11.419 11.707 11.472 11.7643 11.496 11.8663C11.517 11.948 11.4305 12.0168 11.11 12.1715C11.059 12.1963 11.0083 12.2208 10.96 12.2458C10.7878 12.3345 10.6588 12.3455 10.4635 12.3623C10.3855 12.3688 10.3022 12.376 10.2125 12.3883C10.0312 12.411 9.8675 12.4502 9.709 12.4882C9.52625 12.5322 9.3535 12.5735 9.20325 12.5735C9.053 12.5735 8.933 12.5322 8.817 12.4412C8.722 12.3652 8.678 12.2845 8.617 12.173C8.57275 12.092 8.52275 12.0003 8.44375 11.8958C8.374 11.8078 8.314 11.6813 8.256 11.5585C8.128 11.2878 7.96875 10.9508 7.6065 10.9508C7.54475 10.9508 7.4805 10.9618 7.4155 10.9838C7.134 11.0785 7.04025 11.304 6.97175 11.4685C6.94225 11.5393 6.9145 11.606 6.877 11.661C6.78325 11.7948 6.736 11.9368 6.694 12.062C6.62375 12.2723 6.60175 12.297 6.54575 12.3053C6.4555 12.3183 6.39875 12.28 6.2645 12.183C6.2245 12.154 6.183 12.1238 6.139 12.0948C6.0525 12.0373 6.0015 11.9735 5.93675 11.8925C5.8645 11.8022 5.7825 11.6997 5.64825 11.6032C5.499 11.4932 5.36425 11.4405 5.2455 11.3938C5.1495 11.3563 5.0665 11.3237 4.975 11.263C4.94025 11.2397 4.9095 11.2007 4.87375 11.1552C4.7925 11.0522 4.66975 10.8965 4.42725 10.8877L4.402 10.8872C4.21925 10.8872 3.964 10.9523 3.7855 11.2615C3.72075 11.3735 3.6755 11.5247 3.627 11.6847C3.5485 11.946 3.44075 12.3033 3.272 12.3033H3.27175C3.09725 12.2915 2.5835 11.8417 2.3365 11.6255C2.1595 11.4705 2.0065 11.3368 1.89625 11.2638L1.81325 11.2065C1.6245 11.0753 1.43 10.94 1.173 10.94C1.1495 10.94 1.1255 10.9437 1.1015 10.9462ZM8 15.5C5.129 15.5 2.6355 13.886 1.37525 11.516C1.42325 11.5452 1.4735 11.579 1.52725 11.6163L1.61775 11.6785C1.70175 11.7343 1.84975 11.8635 2.0065 12.0007C2.5265 12.4557 2.919 12.7795 3.23875 12.8013C3.80375 12.8385 3.98525 12.226 4.10525 11.828C4.143 11.7023 4.1825 11.5723 4.218 11.5103C4.28425 11.3958 4.3475 11.3862 4.411 11.386C4.425 11.3935 4.45825 11.436 4.48025 11.464C4.53175 11.5295 4.59625 11.611 4.697 11.6783C4.83375 11.769 4.955 11.8165 5.0625 11.8585C5.1655 11.8987 5.2545 11.9338 5.353 12.0068C5.43425 12.0648 5.48575 12.1295 5.54575 12.2043C5.623 12.3005 5.71 12.4092 5.862 12.5107C5.9005 12.5362 5.936 12.562 5.9705 12.5868C6.1325 12.7048 6.31925 12.841 6.6155 12.7998C6.99175 12.7458 7.0975 12.4295 7.1675 12.2203C7.20175 12.1183 7.234 12.022 7.28775 11.9447C7.35575 11.8452 7.39675 11.747 7.4325 11.6605C7.49675 11.5065 7.518 11.4762 7.5745 11.4572C7.592 11.4512 7.6015 11.4495 7.608 11.4505C7.65875 11.4665 7.75275 11.6653 7.80325 11.772C7.87 11.9133 7.94575 12.0732 8.04775 12.2017C8.101 12.272 8.138 12.3402 8.17775 12.4122C8.24925 12.5435 8.3305 12.6925 8.50575 12.833C8.7125 12.9948 8.94025 13.0735 9.20275 13.0735C9.41225 13.0735 9.613 13.0255 9.825 12.9745C9.97025 12.9395 10.1208 12.9035 10.277 12.884C10.36 12.8727 10.435 12.8665 10.5052 12.8603C10.7227 12.842 10.928 12.8242 11.189 12.6897C11.2335 12.6667 11.28 12.6442 11.327 12.6217C11.6382 12.4712 12.1087 12.244 11.981 11.747C11.884 11.3335 11.5162 11.213 11.3167 11.148C11.2537 11.128 11.189 11.1178 11.1243 11.1178C10.956 11.1178 10.8185 11.186 10.708 11.241C10.612 11.2888 10.5318 11.3255 10.4665 11.3108C10.275 11.2653 10.1803 11.1615 10.0235 10.99C9.99175 10.955 9.9585 10.9193 9.923 10.8815C9.8685 10.8243 9.83675 10.7568 9.8 10.6785C9.737 10.5445 9.65875 10.3777 9.45575 10.257C9.25175 10.1357 8.98825 10.1727 8.797 10.228C8.68675 10.2597 8.59775 10.2878 8.52975 10.2513C8.47275 10.2213 8.447 10.1683 8.3975 10.045C8.3375 9.89625 8.2555 9.6925 8.0175 9.58025C7.8855 9.51825 7.75425 9.488 7.61675 9.488C7.36925 9.488 7.15825 9.5855 6.93475 9.68875L6.814 9.744C6.60275 9.838 6.474 9.9795 6.37025 10.0933C6.27325 10.1998 6.20325 10.2765 6.0835 10.3188C5.797 10.4195 5.57375 10.4688 5.40125 10.4688C5.16925 10.4688 5.1025 10.3813 5.06775 10.2965C4.98325 10.0883 4.99125 10.0195 5.06325 9.94525C5.107 9.94525 5.15375 9.9545 5.2025 9.96275C5.333 9.98475 5.5025 10.0037 5.648 9.966C5.8865 9.9015 6.04325 9.82 6.20925 9.73375C6.27875 9.6975 6.3525 9.65925 6.441 9.618C6.49975 9.59025 6.5905 9.5745 6.67775 9.5595C6.872 9.526 7.27675 9.45675 7.24725 9.0385C7.217 8.6645 6.87625 8.5845 6.6725 8.5365C6.61525 8.523 6.5565 8.51 6.50025 8.4895C6.42925 8.46425 6.35175 8.45125 6.26425 8.44975C6.30075 8.39575 6.326 8.32875 6.333 8.24475C6.35425 7.93875 6.1985 7.691 5.86925 7.50825C5.78175 7.46 5.68825 7.4355 5.5915 7.4355C5.4635 7.4355 5.35525 7.47675 5.25975 7.51325C5.17375 7.54575 5.09875 7.57275 5.0375 7.564C4.8325 7.534 4.71025 7.44325 4.5415 7.31775C4.448 7.24825 4.34175 7.16925 4.21025 7.09375C4.102 7.03225 4.0175 6.968 3.92775 6.90025C3.765 6.777 3.59675 6.64925 3.32275 6.57225C2.974 6.47425 2.677 6.49825 2.3125 6.55225L2.22275 6.5655C2.16325 6.574 2.10825 6.579 2.05625 6.58375C1.867 6.6015 1.6715 6.61975 1.448 6.77225C1.20625 6.94025 1.14875 7.1685 1.10225 7.352C1.07275 7.46875 1.047 7.5695 0.977 7.65525C0.90625 7.74375 0.832 7.79425 0.73825 7.85825C0.6645 7.9085 0.584 7.9645 0.5015 8.04175C0.501 8.027 0.5 8.01375 0.5 8C0.5 4.347 3.1125 1.30525 6.57075 0.63775C6.5985 0.68075 6.627 0.7225 6.65425 0.76025C6.74125 0.88025 6.76275 0.9185 6.757 0.989C6.75075 1.07175 6.71925 1.1115 6.62075 1.225L6.57175 1.2825C6.50675 1.3605 6.44 1.39875 6.34725 1.4515C6.26525 1.4985 6.172 1.5515 6.0695 1.64C6.02875 1.6755 5.987 1.7025 5.9475 1.7285C5.82825 1.8075 5.66475 1.916 5.60475 2.15375C5.54375 2.3995 5.6845 2.56925 5.76875 2.67075C5.79575 2.70375 5.8415 2.75875 5.8405 2.7735C5.8305 2.901 5.80375 2.96175 5.712 3.0585C5.69425 3.078 5.67875 3.08825 5.643 3.1115C5.61475 3.1295 5.585 3.149 5.552 3.17425L5.52175 3.20175C5.50675 3.2175 5.37525 3.3625 5.29725 3.5895C5.238 3.76825 5.2355 3.8615 5.28625 3.989L5.29725 4.0185C5.30625 4.04875 5.31475 4.15525 5.31525 4.224L5.29425 4.5285L5.49775 4.57925C5.6315 4.6125 5.69925 4.64025 5.836 4.70775C5.92375 4.75 5.9815 4.79025 6.0545 4.841L6.128 4.89075C6.226 4.94925 6.3255 4.939 6.43125 4.92725C6.484 4.9325 6.5305 4.936 6.57475 4.93975C6.671 4.94725 6.756 4.95425 6.877 4.97175L6.9555 4.9815C7.0165 4.989 7.065 4.99425 7.1325 5.01225C7.171 5.023 7.20375 5.048 7.258 5.0905C7.3505 5.1635 7.47725 5.26325 7.68425 5.26325C7.86525 5.262 7.98225 5.1825 8.06775 5.12425C8.11725 5.09075 8.147 5.07125 8.184 5.061C8.271 5.03625 8.3705 5.03725 8.47175 5.0425C8.61775 5.05075 8.7655 5.04775 8.9025 5.01375C8.96625 4.99775 9.017 4.97575 9.0655 4.95325C9.108 4.93375 9.12375 4.927 9.129 4.926L9.147 4.9265L9.16 4.925C9.1765 4.92625 9.20225 4.93725 9.23475 4.951C9.299 4.9785 9.38675 5.0165 9.51925 5.021C9.789 5.021 10.207 4.6735 10.212 4.66925C10.2585 4.62825 10.2972 4.61025 10.3617 4.58C10.4072 4.55875 10.455 4.536 10.5208 4.49775C10.5898 4.452 10.6447 4.4075 10.6967 4.36475C10.7702 4.3045 10.8185 4.2645 10.9017 4.2355C11.076 4.1735 11.159 4.1505 11.267 4.187C11.3288 4.2085 11.3538 4.22575 11.4335 4.2905C11.4725 4.322 11.4932 4.352 11.5282 4.40175C11.5622 4.4505 11.5983 4.501 11.647 4.553C11.6688 4.57725 11.6867 4.6 11.7037 4.62175C11.7582 4.6905 11.826 4.7765 11.953 4.8465C12.1113 4.9325 12.305 4.92 12.4475 4.89125C12.5115 4.87825 12.5613 4.86625 12.6145 4.8745L12.703 4.8865C12.764 4.89425 12.808 4.9 12.8507 4.914C12.8722 4.9205 12.8948 4.9295 12.9218 4.944C13.0313 5.00225 13.0722 5.05425 13.1685 5.19825C13.254 5.32875 13.2728 5.42475 13.307 5.59925L13.3247 5.6885C13.355 5.84225 13.3583 5.94675 13.3625 6.09125L13.3675 6.229C13.3703 6.29525 13.3755 6.35325 13.381 6.408C13.3917 6.5175 13.3987 6.59 13.374 6.6925C13.3592 6.755 13.3295 6.79625 13.2735 6.86975C13.21 6.953 13.131 7.05675 13.0885 7.212L13.076 7.2545C13.0308 7.4095 12.9878 7.556 13.036 7.77275C13.0473 7.821 13.045 7.96275 13.0433 8.06625C13.0385 8.34925 13.0358 8.53625 13.1543 8.65675C13.2085 8.712 13.2805 8.74225 13.357 8.74225L13.4345 8.737L13.4855 8.7125C13.5568 8.6785 13.6185 8.62975 13.674 8.57575C13.676 8.58025 13.6777 8.5845 13.6795 8.589C13.7482 8.7425 13.8953 8.83075 14.0833 8.83075C14.2893 8.83075 14.7062 8.68475 14.7347 8.4145C14.7415 8.34325 14.7388 8.27875 14.7353 8.218C14.73 8.13025 14.7317 8.11325 14.7485 8.0865C14.7582 8.079 14.8003 8.06675 14.828 8.059C14.9155 8.03375 15.0348 7.99975 15.1453 7.893C15.242 7.797 15.2852 7.7005 15.32 7.62325C15.346 7.56525 15.361 7.5335 15.3915 7.502C15.4095 7.483 15.434 7.4705 15.4785 7.44925C15.491 7.63125 15.5 7.8145 15.5 8C15.5 12.142 12.142 15.5 8 15.5Z" fill="#333333"/>
<path d="M11.1573 7.0405C10.8823 7.11975 10.7833 7.32975 10.7108 7.48325C10.672 7.56575 10.6383 7.63675 10.5828 7.688C10.4848 7.7795 10.39 7.83 10.28 7.8885C10.158 7.9535 10.0198 8.027 9.87676 8.1605C9.82576 8.20775 9.76726 8.2485 9.71151 8.28825C9.52726 8.419 9.24851 8.61675 9.33026 8.98925C9.38376 9.223 9.56351 9.3625 9.81076 9.3625C9.97451 9.3625 10.1523 9.30525 10.3245 9.24975C10.4095 9.2225 10.4938 9.19475 10.5705 9.17775C11.0085 9.082 11.3083 8.96725 11.6363 8.63775C11.6723 8.602 11.7098 8.56625 11.7478 8.52975C12.0313 8.25975 12.4593 7.8515 12.141 7.379C11.927 7.05775 11.5478 6.92825 11.1573 7.0405ZM11.4025 8.16775C11.362 8.2065 11.3218 8.245 11.2825 8.284C11.0368 8.531 10.831 8.60875 10.4633 8.68925C10.372 8.70925 10.2715 8.74125 10.1708 8.77375C10.0453 8.814 9.90351 8.86 9.81726 8.86225C9.82251 8.83175 9.86226 8.7945 10.001 8.696C10.0688 8.64775 10.146 8.593 10.2173 8.5265C10.3128 8.43775 10.4063 8.38775 10.5148 8.33C10.638 8.26425 10.778 8.19 10.9228 8.0545C11.0488 7.9385 11.112 7.8045 11.1628 7.69675C11.2268 7.5615 11.2465 7.53525 11.2958 7.521C11.344 7.507 11.391 7.5 11.4355 7.5C11.5583 7.5 11.6558 7.5525 11.7255 7.65725C11.79 7.753 11.7175 7.8675 11.4025 8.16775Z" fill="#333333"/>
<path d="M8.10549 13.2702C8.04774 13.2702 7.98924 13.2792 7.92874 13.2977C7.56424 13.4152 7.58149 13.7812 7.59049 13.978C7.59399 14.0502 7.59699 14.1185 7.59024 14.178C7.58449 14.2322 7.56949 14.2842 7.55624 14.3342C7.51174 14.5022 7.44474 14.7557 7.66549 14.9732C7.76949 15.0732 7.90074 15.1262 8.04549 15.1262C8.26024 15.1262 8.50199 15.002 8.69374 14.7927C8.98724 14.466 8.99074 13.9885 8.70449 13.6345C8.57099 13.4647 8.38274 13.2702 8.10549 13.2702ZM8.32299 14.4567C8.22149 14.568 8.10649 14.6262 8.04549 14.6262C8.03049 14.6262 8.02299 14.6232 8.01099 14.613C8.00574 14.59 8.02649 14.5132 8.03974 14.4622C8.05749 14.3945 8.07799 14.3175 8.08699 14.2337C8.09849 14.136 8.09374 14.0397 8.08999 13.9545C8.08724 13.8962 8.08349 13.8117 8.09074 13.7717C8.13274 13.7642 8.18199 13.779 8.31324 13.946C8.44799 14.1127 8.45149 14.314 8.32299 14.4567Z" fill="#333333"/>
</g>
<defs>
<clipPath id="clip0_7_20">
<rect width="16" height="16" fill="white"/>
</clipPath>
</defs>
</svg>
